inDegrees=no
num_controls=7
num_derivatives=13
num_iterations=149
num_multipliers=7
num_parameters=0
num_slacks=7
num_states=26
objective=5.455069
objective_accelerations=0.534666
objective_balance=0.005205
objective_effort=0.427326
objective_height=4.418321
objective_ligament=0.069551
solver_duration=1283.547653
status=Solve_Succeeded
success=true
DataType=double
version=3
OpenSimVersion=4.4-2022-07-23-0e9fedc
endheader
time	/jointset/ground_pelvis/pelvis_tilt/value	/jointset/ground_pelvis/pelvis_tx/value	/jointset/ground_pelvis/pelvis_ty/value	/jointset/hip_r/hip_flexion_r/value	/jointset/hip_r/hip_adduction_r/value	/jointset/hip_r/hip_rotation_r/value	/jointset/back/lumbar_extension/value	/jointset/patellofemoral_r/patellar_flexion_r/value	/jointset/knee_r/knee_flexion_r/value	/jointset/knee_r/knee_adduction_r/value	/jointset/knee_r/knee_rotation_r/value	/jointset/ankle_r/ankle_angle_r/value	/jointset/subtalar_r/subtalar_angle_r/value	/jointset/ground_pelvis/pelvis_tilt/speed	/jointset/ground_pelvis/pelvis_tx/speed	/jointset/ground_pelvis/pelvis_ty/speed	/jointset/hip_r/hip_flexion_r/speed	/jointset/hip_r/hip_adduction_r/speed	/jointset/hip_r/hip_rotation_r/speed	/jointset/back/lumbar_extension/speed	/jointset/patellofemoral_r/patellar_flexion_r/speed	/jointset/knee_r/knee_flexion_r/speed	/jointset/knee_r/knee_adduction_r/speed	/jointset/knee_r/knee_rotation_r/speed	/jointset/ankle_r/ankle_angle_r/speed	/jointset/subtalar_r/subtalar_angle_r/speed	/forceset/tau_hip_flexion_r	/forceset/tau_hip_adduction_r	/forceset/tau_hip_rotation_r	/forceset/tau_knee_flexion_r	/forceset/tau_ankle_angle_r	/forceset/tau_subtalar_angle_r	/forceset/tau_lumbar_extension	lambda_cid13_p0	lambda_cid14_p0	lambda_cid14_p1	lambda_cid14_p2	lambda_cid14_p3	lambda_cid14_p4	lambda_cid14_p5	/jointset/ground_pelvis/pelvis_tilt/accel	/jointset/ground_pelvis/pelvis_tx/accel	/jointset/ground_pelvis/pelvis_ty/accel	/jointset/hip_r/hip_flexion_r/accel	/jointset/hip_r/hip_adduction_r/accel	/jointset/hip_r/hip_rotation_r/accel	/jointset/back/lumbar_extension/accel	/jointset/patellofemoral_r/patellar_flexion_r/accel	/jointset/knee_r/knee_flexion_r/accel	/jointset/knee_r/knee_adduction_r/accel	/jointset/knee_r/knee_rotation_r/accel	/jointset/ankle_r/ankle_angle_r/accel	/jointset/subtalar_r/subtalar_angle_r/accel	gamma_cid13_p0	gamma_cid14_p0	gamma_cid14_p1	gamma_cid14_p2	gamma_cid14_p3	gamma_cid14_p4	gamma_cid14_p5
1	-0.1816497129950101	-0.00550193221713245	0.6625689779696783	1.31244024795431	-0.2361164831485515	-0.1038004188615948	-0.7853950235888351	1.448017720221701	1.448017720221644	-0.1745328831378226	0.1745298908239822	0.436254536120234	0.1803264672364676	0.07008959471453752	0.00577370099243908	0.01473697490780017	-0.1009457991655853	-0.001075047711083485	-0.002463047007826338	0.0005254009639633261	-0.01690642324827324	-0.0169064232482741	0.003591235110217349	-0.0003680555672450027	0.0139446967862496	0.005318492103091033	-0.3002528921906945	0.0158477899959106	0.01403931948399376	-0.4608081259930511	-0.02115126967119148	0.01433986708827722	0.3383416506686984	-0.04195935452984347	-57.07613349554752	-5.721129461855193	3.567479488773841	9.457970363811038	-760.8244606014822	81.95300001298371	1.089213140347873	0.1021312157855018	1.675604858471951	-4.902197434272694	0.2989113944509263	-0.535881812449017	0.03396797810266514	-4.901461975326244	-4.901461975326227	0.6650370184783945	-0.03384539706740968	-1.240111093175825	-0.07050107169880078	1.211394743890941e-09	8.125863331356605e-10	1.356316549380903e-08	7.644748206854458e-09	1.065812872907022e-09	-4.961349997854892e-09	2.19185234133251e-08
1.01	-0.1808954108870455	-0.005438877310688636	0.6627999542146014	1.311186763762095	-0.2361125245298291	-0.1038491231784757	-0.7853852988533845	1.447604205752008	1.447604205751987	-0.1744607961252091	0.1745243496241898	0.4363322445193054	0.1803757495979416	0.0807226546387249	0.006860554905217336	0.03145310702228401	-0.1497241528205528	0.001852417663781112	-0.007241278955425156	0.00162972284845287	-0.06578274736578157	-0.0657827473657813	0.0108793381939025	-0.0007252875092514408	0.001625995460735196	0.004524704918950942	-0.3011337494803218	0.01589881985462284	0.01408960017369418	-0.4606899513017901	-0.02147917734870984	0.01434866650782335	0.3395238544825087	-0.04195133468320136	-57.21452088308109	-5.736946142099144	3.564755732239026	9.231355023772446	-761.5211564895565	81.94702445245662	1.043128404110898	0.1154538625034843	1.668840205188965	-4.861619747929599	0.2875156982370208	-0.4433115850175923	0.1801908019934947	-4.87866001429818	-4.878660014298002	0.7686735556558434	-0.0344179452131829	-1.223398355897878	-0.08579891175722393	4.383113315353202e-09	5.06863298523578e-09	3.74740886281137e-08	3.369292797376036e-08	9.613452212757164e-10	-1.056626741959446e-08	6.596703362849346e-08
1.02	-0.1800362229827097	-0.005364255588421058	0.6631979363441198	1.309446302949964	-0.2360797209395112	-0.1039445133546579	-0.7853582255974203	1.446702339564272	1.446702339564292	-0.1743142327612905	0.1745156849344764	0.436287636164385	0.1804166978135771	0.09106675398918354	0.008087064157191888	0.0481381518268539	-0.1983411231483519	0.004693946607960425	-0.01180021886711775	0.003995105067796957	-0.1145767668566938	-0.1145767668566925	0.0184865053712802	-0.0009927535490911463	-0.0105186540111256	0.003651662935383321	-0.3020146067699501	0.01594984971332276	0.0141398808634111	-0.4605717766105276	-0.02180708502623208	0.01435746592734409	0.3407060582963177	-0.04195191375712046	-57.36168381691225	-5.750476602156452	3.557300559325805	9.015009155057502	-762.353621493667	81.97686857710336	1.031421025602089	0.1300622836247917	1.669387396489164	-4.869920768839028	0.2817241083138229	-0.4920234052678169	0.2861800450735519	-4.88500105000702	-4.885001050007025	0.7288498372169292	-0.01589221663395711	-1.205300722445062	-0.08635203158437131	9.570216556470635e-09	1.369278278466788e-08	6.561450071074819e-08	7.417873179852085e-08	-4.247473497375003e-09	-1.699034401241578e-08	1.276919425948592e-07
1.03	-0.1790748751453414	-0.005276741480928245	0.6637625846745693	1.307220471947237	-0.2360189088833543	-0.1040844575941314	-0.7853017780358733	1.445312882219523	1.445312882219535	-0.1740900698574195	0.1745047953548282	0.4361222282607003	0.1804484466456884	0.1011693589938251	0.009432039614509429	0.0647832503538894	-0.2467971886712094	0.007457371340280825	-0.01615840622273076	0.007448573317747908	-0.1633070859974473	-0.1633070859974461	0.02639075703263209	-0.001172818030032179	-0.02255593697383113	0.002679642579296804	-0.302398928400706	0.01602073450333942	0.01423491083246612	-0.4601706877353899	-0.02213454878907234	0.01434214941199399	0.3413898894324814	-0.0419659888742909	-57.48352418509167	-5.770641453527617	3.551582733334707	8.925212574416808	-762.6853134109999	81.94209232105254	0.9946670169539124	0.1391555842691888	1.660826770907004	-4.829261485657409	0.2720030122075081	-0.4031740415606463	0.3980551263064454	-4.865907918914735	-4.865907918914737	0.8279146498924234	-0.01718119778941389	-1.201893447936611	-0.1053677841638964	1.477788494727844e-08	2.236150506519524e-08	9.379807084387584e-08	1.148118583177493e-07	-9.508377430995339e-09	-2.342277937228897e-08	1.895972229770536e-07
1.04	-0.1780135039021136	-0.005175289537365445	0.6644934351283085	1.304510917880954	-0.2359307923085704	-0.1042670752353334	-0.7852061708095551	1.443436349568806	1.443436349568809	-0.1737855240730757	0.1744924816035681	0.4358366572544383	0.1804699271249302	0.1110714351608142	0.01087463137118936	0.08137857648477891	-0.2950857358599991	0.01015485033325622	-0.02033489921244956	0.01182703802172101	-0.2119918280504097	-0.2119918280504081	0.03456308146590884	-0.001277587869580252	-0.03455127452666892	0.00159799236148439	-0.3027832500314503	0.01609161929335128	0.01432994080153207	-0.4597695988602498	-0.02246201255191543	0.01432683289663332	0.3420737205686559	-0.04198858782335878	-57.61405614040945	-5.788259274183678	3.540810797565235	8.843346306634903	-763.1537997361501	81.94392602129361	0.9913152580715764	0.1495855434972956	1.659432917259964	-4.836417102025449	0.2685349604447846	-0.4556845320890109	0.4711793358779646	-4.875885632448813	-4.875885632448721	0.7824643916019222	-0.0008332883552812673	-1.19691164047148	-0.1082780039296014	1.957737861763661e-08	3.013744238612751e-08	1.199917536706387e-07	1.541957730050813e-07	-1.356121107904471e-08	-2.873338287394201e-08	2.465122504121232e-07
